<svg viewBox="0 0 400 400" xmlns="http://www.w3.org/2000/svg" aria-hidden="true">
  <g stroke="#888" stroke-opacity="0.18" stroke-width="0.5" fill="none">
    <line x1="189.2" y1="187.9" x2="203.1" y2="192.6"/>
    <line x1="189.2" y1="187.9" x2="176.0" y2="211.9"/>
    <line x1="189.2" y1="187.9" x2="197.5" y2="199.6"/>
    <line x1="189.2" y1="187.9" x2="203.9" y2="163.5"/>
    <line x1="220.5" y1="312.7" x2="202.4" y2="294.0"/>
    <line x1="224.9" y1="181.3" x2="246.5" y2="181.1"/>
    <line x1="251.8" y1="209.2" x2="249.2" y2="207.7"/>
    <line x1="251.8" y1="209.2" x2="272.1" y2="188.5"/>
    <line x1="251.8" y1="209.2" x2="249.9" y2="222.2"/>
    <line x1="249.2" y1="207.7" x2="265.5" y2="183.2"/>
    <line x1="249.2" y1="207.7" x2="272.1" y2="188.5"/>
    <line x1="249.2" y1="207.7" x2="246.5" y2="181.1"/>
    <line x1="149.2" y1="186.2" x2="167.3" y2="198.2"/>
    <line x1="203.1" y1="192.6" x2="202.5" y2="217.7"/>
    <line x1="203.1" y1="192.6" x2="197.5" y2="199.6"/>
    <line x1="203.1" y1="192.6" x2="203.9" y2="163.5"/>
    <line x1="265.5" y1="183.2" x2="292.0" y2="197.9"/>
    <line x1="272.1" y1="188.5" x2="292.0" y2="197.9"/>
    <line x1="272.1" y1="188.5" x2="246.5" y2="181.1"/>
    <line x1="96.4" y1="148.9" x2="87.9" y2="161.7"/>
    <line x1="208.6" y1="257.3" x2="214.9" y2="253.4"/>
    <line x1="208.6" y1="257.3" x2="194.3" y2="247.9"/>
    <line x1="208.6" y1="257.3" x2="194.7" y2="252.5"/>
    <line x1="208.6" y1="257.3" x2="192.6" y2="282.2"/>
    <line x1="208.6" y1="257.3" x2="203.5" y2="235.2"/>
    <line x1="203.7" y1="232.1" x2="214.9" y2="253.4"/>
    <line x1="203.7" y1="232.1" x2="194.7" y2="252.5"/>
    <line x1="203.7" y1="232.1" x2="208.9" y2="236.4"/>
    <line x1="153.0" y1="149.8" x2="161.3" y2="121.0"/>
    <line x1="153.0" y1="149.8" x2="123.4" y2="158.2"/>
    <line x1="214.9" y1="253.4" x2="205.4" y2="226.4"/>
    <line x1="214.9" y1="253.4" x2="208.9" y2="236.4"/>
    <line x1="202.5" y1="217.7" x2="203.5" y2="235.2"/>
    <line x1="194.3" y1="247.9" x2="194.7" y2="252.5"/>
    <line x1="194.3" y1="247.9" x2="179.8" y2="258.0"/>
    <line x1="246.5" y1="157.3" x2="231.6" y2="147.7"/>
    <line x1="246.5" y1="157.3" x2="217.2" y2="157.4"/>
    <line x1="246.5" y1="157.3" x2="236.6" y2="159.6"/>
    <line x1="246.5" y1="157.3" x2="261.1" y2="132.3"/>
    <line x1="194.7" y1="252.5" x2="192.6" y2="282.2"/>
    <line x1="194.7" y1="252.5" x2="205.4" y2="226.4"/>
    <line x1="194.7" y1="252.5" x2="205.3" y2="270.1"/>
    <line x1="192.0" y1="292.5" x2="202.4" y2="294.0"/>
    <line x1="167.3" y1="198.2" x2="176.0" y2="211.9"/>
    <line x1="167.3" y1="198.2" x2="176.9" y2="173.6"/>
    <line x1="167.3" y1="198.2" x2="197.5" y2="199.6"/>
    <line x1="176.0" y1="211.9" x2="197.5" y2="199.6"/>
    <line x1="176.0" y1="211.9" x2="171.7" y2="202.3"/>
    <line x1="176.0" y1="211.9" x2="162.1" y2="196.1"/>
    <line x1="176.0" y1="211.9" x2="148.2" y2="204.4"/>
    <line x1="207.3" y1="191.8" x2="203.9" y2="163.5"/>
    <line x1="176.9" y1="173.6" x2="171.7" y2="202.3"/>
    <line x1="176.9" y1="173.6" x2="193.7" y2="153.5"/>
    <line x1="176.9" y1="173.6" x2="162.1" y2="196.1"/>
    <line x1="192.6" y1="282.2" x2="205.3" y2="270.1"/>
    <line x1="329.4" y1="126.1" x2="330.4" y2="139.3"/>
    <line x1="329.4" y1="126.1" x2="334.2" y2="145.8"/>
    <line x1="207.3" y1="113.1" x2="185.3" y2="96.2"/>
    <line x1="197.5" y1="199.6" x2="171.7" y2="202.3"/>
    <line x1="197.5" y1="199.6" x2="205.4" y2="226.4"/>
    <line x1="231.6" y1="147.7" x2="203.9" y2="163.5"/>
    <line x1="330.9" y1="82.3" x2="311.0" y2="94.8"/>
    <line x1="171.7" y1="202.3" x2="154.2" y2="222.4"/>
    <line x1="171.7" y1="202.3" x2="162.1" y2="196.1"/>
    <line x1="203.9" y1="163.5" x2="217.2" y2="157.4"/>
    <line x1="154.2" y1="222.4" x2="125.5" y2="223.3"/>
    <line x1="154.2" y1="222.4" x2="148.2" y2="204.4"/>
    <line x1="193.7" y1="153.5" x2="217.2" y2="157.4"/>
    <line x1="162.1" y1="196.1" x2="148.2" y2="204.4"/>
    <line x1="221.5" y1="350.7" x2="200.2" y2="358.6"/>
    <line x1="249.9" y1="222.2" x2="268.3" y2="224.6"/>
    <line x1="123.5" y1="165.8" x2="123.4" y2="158.2"/>
    <line x1="128.5" y1="230.8" x2="113.2" y2="245.0"/>
    <line x1="262.0" y1="241.2" x2="268.3" y2="224.6"/>
    <line x1="262.0" y1="241.2" x2="274.6" y2="234.1"/>
    <line x1="125.5" y1="223.3" x2="113.2" y2="245.0"/>
    <line x1="342.6" y1="199.4" x2="362.4" y2="186.9"/>
    <line x1="330.4" y1="139.3" x2="334.2" y2="145.8"/>
    <line x1="87.9" y1="161.7" x2="58.8" y2="150.9"/>
    <line x1="304.9" y1="348.9" x2="292.7" y2="341.5"/>
    <line x1="205.3" y1="270.1" x2="179.8" y2="258.0"/>
    <line x1="342.5" y1="196.5" x2="368.4" y2="208.3"/>
  </g>
  <path d="M 157.4 229.1 Q 143.0 200.0 128.5 230.8" stroke="#a00" stroke-width="1.4" fill="none" stroke-opacity="0.75" stroke-linecap="round"/>
  <path d="M 123.4 158.2 Q 237.2 161.5 311.0 94.8" stroke="#a00" stroke-width="1.4" fill="none" stroke-opacity="0.6" stroke-linecap="round" stroke-dasharray="2 3"/>
  <g>
    <circle cx="189.2" cy="187.9" r="2" fill="#666" fill-opacity="0.55"/>
    <circle cx="220.5" cy="312.7" r="3" fill="#666" fill-opacity="0.55"/>
    <circle cx="224.9" cy="181.3" r="2" fill="#666" fill-opacity="0.55"/>
    <circle cx="251.8" cy="209.2" r="2" fill="#a00" fill-opacity="0.92"/>
    <circle cx="249.2" cy="207.7" r="3" fill="#666" fill-opacity="0.55"/>
    <circle cx="149.2" cy="186.2" r="3" fill="#666" fill-opacity="0.55"/>
    <circle cx="203.1" cy="192.6" r="3" fill="#666" fill-opacity="0.55"/>
    <circle cx="178.1" cy="139.5" r="2" fill="#666" fill-opacity="0.55"/>
    <circle cx="265.5" cy="183.2" r="2" fill="#666" fill-opacity="0.55"/>
    <circle cx="319.4" cy="277.5" r="3" fill="#666" fill-opacity="0.55"/>
    <circle cx="242.6" cy="94.0" r="2" fill="#666" fill-opacity="0.55"/>
    <circle cx="272.1" cy="188.5" r="3" fill="#666" fill-opacity="0.55"/>
    <circle cx="249.8" cy="114.7" r="4" fill="#666" fill-opacity="0.55"/>
    <circle cx="96.4" cy="148.9" r="2" fill="#666" fill-opacity="0.55"/>
    <circle cx="208.6" cy="257.3" r="2" fill="#666" fill-opacity="0.55"/>
    <circle cx="203.7" cy="232.1" r="2" fill="#666" fill-opacity="0.55"/>
    <circle cx="153.0" cy="149.8" r="2" fill="#666" fill-opacity="0.55"/>
    <circle cx="214.9" cy="253.4" r="4" fill="#666" fill-opacity="0.55"/>
    <circle cx="138.6" cy="123.1" r="2" fill="#666" fill-opacity="0.55"/>
    <circle cx="194.1" cy="158.5" r="2" fill="#666" fill-opacity="0.55"/>
    <circle cx="307.0" cy="193.4" r="3" fill="#666" fill-opacity="0.55"/>
    <circle cx="142.4" cy="76.5" r="3" fill="#666" fill-opacity="0.55"/>
    <circle cx="202.5" cy="217.7" r="2" fill="#666" fill-opacity="0.55"/>
    <circle cx="194.3" cy="247.9" r="4" fill="#666" fill-opacity="0.55"/>
    <circle cx="246.5" cy="157.3" r="3" fill="#666" fill-opacity="0.55"/>
    <circle cx="68.2" cy="294.7" r="2" fill="#666" fill-opacity="0.55"/>
    <circle cx="194.7" cy="252.5" r="3" fill="#666" fill-opacity="0.55"/>
    <circle cx="192.0" cy="292.5" r="4" fill="#666" fill-opacity="0.55"/>
    <circle cx="157.4" cy="229.1" r="4" fill="#a00" fill-opacity="0.92"/>
    <circle cx="167.3" cy="198.2" r="2" fill="#666" fill-opacity="0.55"/>
    <circle cx="281.4" cy="262.5" r="3" fill="#666" fill-opacity="0.55"/>
    <circle cx="176.0" cy="211.9" r="2" fill="#a00" fill-opacity="0.92"/>
    <circle cx="292.0" cy="197.9" r="4" fill="#666" fill-opacity="0.55"/>
    <circle cx="207.3" cy="191.8" r="3" fill="#666" fill-opacity="0.55"/>
    <circle cx="161.3" cy="121.0" r="2" fill="#666" fill-opacity="0.55"/>
    <circle cx="176.9" cy="173.6" r="2" fill="#666" fill-opacity="0.55"/>
    <circle cx="21.8" cy="249.8" r="4" fill="#666" fill-opacity="0.55"/>
    <circle cx="192.6" cy="282.2" r="2" fill="#666" fill-opacity="0.55"/>
    <circle cx="329.4" cy="126.1" r="2" fill="#666" fill-opacity="0.55"/>
    <circle cx="134.0" cy="126.5" r="2" fill="#666" fill-opacity="0.55"/>
    <circle cx="207.3" cy="113.1" r="3" fill="#666" fill-opacity="0.55"/>
    <circle cx="197.5" cy="199.6" r="2" fill="#666" fill-opacity="0.55"/>
    <circle cx="371.3" cy="219.7" r="4" fill="#666" fill-opacity="0.55"/>
    <circle cx="231.6" cy="147.7" r="2" fill="#666" fill-opacity="0.55"/>
    <circle cx="330.9" cy="82.3" r="2" fill="#666" fill-opacity="0.55"/>
    <circle cx="171.7" cy="202.3" r="3" fill="#666" fill-opacity="0.55"/>
    <circle cx="203.9" cy="163.5" r="2" fill="#666" fill-opacity="0.55"/>
    <circle cx="144.0" cy="183.1" r="4" fill="#666" fill-opacity="0.55"/>
    <circle cx="154.2" cy="222.4" r="2" fill="#a00" fill-opacity="0.92"/>
    <circle cx="193.7" cy="153.5" r="2" fill="#666" fill-opacity="0.55"/>
    <circle cx="308.6" cy="196.9" r="2" fill="#666" fill-opacity="0.55"/>
    <circle cx="162.1" cy="196.1" r="2" fill="#666" fill-opacity="0.55"/>
    <circle cx="147.5" cy="279.3" r="2" fill="#666" fill-opacity="0.55"/>
    <circle cx="205.4" cy="226.4" r="3" fill="#666" fill-opacity="0.55"/>
    <circle cx="221.5" cy="350.7" r="4" fill="#666" fill-opacity="0.55"/>
    <circle cx="249.9" cy="222.2" r="3" fill="#666" fill-opacity="0.55"/>
    <circle cx="208.9" cy="236.4" r="4" fill="#666" fill-opacity="0.55"/>
    <circle cx="123.5" cy="165.8" r="3" fill="#666" fill-opacity="0.55"/>
    <circle cx="217.2" cy="157.4" r="2" fill="#666" fill-opacity="0.55"/>
    <circle cx="128.5" cy="230.8" r="2" fill="#a00" fill-opacity="0.92"/>
    <circle cx="185.3" cy="96.2" r="4" fill="#a00" fill-opacity="0.92"/>
    <circle cx="262.0" cy="241.2" r="2" fill="#666" fill-opacity="0.55"/>
    <circle cx="236.6" cy="159.6" r="2" fill="#666" fill-opacity="0.55"/>
    <circle cx="125.5" cy="223.3" r="2" fill="#666" fill-opacity="0.55"/>
    <circle cx="200.2" cy="358.6" r="2" fill="#666" fill-opacity="0.55"/>
    <circle cx="261.1" cy="132.3" r="2" fill="#666" fill-opacity="0.55"/>
    <circle cx="342.6" cy="199.4" r="4" fill="#666" fill-opacity="0.55"/>
    <circle cx="330.4" cy="139.3" r="2" fill="#666" fill-opacity="0.55"/>
    <circle cx="148.2" cy="204.4" r="2" fill="#a00" fill-opacity="0.92"/>
    <circle cx="268.3" cy="224.6" r="4" fill="#666" fill-opacity="0.55"/>
    <circle cx="187.5" cy="322.0" r="2" fill="#666" fill-opacity="0.55"/>
    <circle cx="33.2" cy="281.8" r="4" fill="#666" fill-opacity="0.55"/>
    <circle cx="87.9" cy="161.7" r="2" fill="#666" fill-opacity="0.55"/>
    <circle cx="142.9" cy="376.4" r="3" fill="#666" fill-opacity="0.55"/>
    <circle cx="79.8" cy="169.5" r="2" fill="#a00" fill-opacity="0.92"/>
    <circle cx="123.4" cy="158.2" r="4" fill="#a00" fill-opacity="0.92"/>
    <circle cx="304.9" cy="348.9" r="2" fill="#666" fill-opacity="0.55"/>
    <circle cx="239.6" cy="286.6" r="3" fill="#666" fill-opacity="0.55"/>
    <circle cx="203.5" cy="235.2" r="4" fill="#666" fill-opacity="0.55"/>
    <circle cx="202.4" cy="294.0" r="3" fill="#666" fill-opacity="0.55"/>
    <circle cx="113.2" cy="245.0" r="2" fill="#666" fill-opacity="0.55"/>
    <circle cx="246.5" cy="181.1" r="3" fill="#666" fill-opacity="0.55"/>
    <circle cx="205.3" cy="270.1" r="3" fill="#666" fill-opacity="0.55"/>
    <circle cx="179.8" cy="258.0" r="3" fill="#666" fill-opacity="0.55"/>
    <circle cx="274.6" cy="234.1" r="4" fill="#666" fill-opacity="0.55"/>
    <circle cx="342.5" cy="196.5" r="2" fill="#666" fill-opacity="0.55"/>
    <circle cx="234.3" cy="345.3" r="2" fill="#666" fill-opacity="0.55"/>
    <circle cx="356.0" cy="130.4" r="2" fill="#666" fill-opacity="0.55"/>
    <circle cx="311.0" cy="94.8" r="2" fill="#a00" fill-opacity="0.92"/>
    <circle cx="292.7" cy="341.5" r="2" fill="#666" fill-opacity="0.55"/>
    <circle cx="153.5" cy="45.4" r="2" fill="#666" fill-opacity="0.55"/>
    <circle cx="362.4" cy="186.9" r="2" fill="#666" fill-opacity="0.55"/>
    <circle cx="368.4" cy="208.3" r="2" fill="#666" fill-opacity="0.55"/>
    <circle cx="150.2" cy="355.4" r="2" fill="#666" fill-opacity="0.55"/>
    <circle cx="334.2" cy="145.8" r="2" fill="#666" fill-opacity="0.55"/>
    <circle cx="307.6" cy="295.4" r="2" fill="#666" fill-opacity="0.55"/>
    <circle cx="58.8" cy="150.9" r="2" fill="#a00" fill-opacity="0.92"/>
  </g>
</svg>
